<?xml version="1.0" encoding="utf-8"?>
<!-- Generator: Adobe Illustrator 21.0.0, SVG Export Plug-In . SVG Version: 6.00 Build 0)  -->
<svg version="1.0" id="Layer_1" xmlns="http://www.w3.org/2000/svg" xmlns:xlink="http://www.w3.org/1999/xlink" x="0px" y="0px"
	 viewBox="0 0 415 154.8" style="enable-background:new 0 0 415 154.8;" xml:space="preserve">
<style type="text/css">
	.st0{fill:#FFFFFF;}
</style>
<g>
	<g>
		<g>
			<path class="st0" d="M0.7,126.5h23.5v3.6h-9.8v24.6h-4v-24.6H0.7V126.5z"/>
			<path class="st0" d="M56.1,126.6h4v28.1h-4v-12.2H40.3v12.2h-4v-28.1h4v12.2h15.8V126.6z"/>
			<path class="st0" d="M74.6,126.6h16v3.6H78.6v8.6h11.5v3.6H78.6v8.7h12.3v3.6H74.6V126.6z"/>
			<path class="st0" d="M145.5,126.6h3.8v28.1h-3.5L127.1,133v21.7h-3.8v-28.1h3.3l19,21.9V126.6z"/>
			<path class="st0" d="M163.6,126.6h16v3.6h-11.9v8.6h11.5v3.6h-11.5v8.7H180v3.6h-16.3V126.6z"/>
			<path class="st0" d="M228.4,126.6h4L221,154.8h-0.9l-9.2-22.9l-9.3,22.9h-0.9l-11.3-28.3h4.1l7.8,19.4l7.8-19.4h3.8l7.8,19.4
				L228.4,126.6z"/>
			<path class="st0" d="M285.8,126.6h3.8v28.1h-4v-21.9l-8.7,10.9h-0.7l-8.8-10.9v21.9h-4v-28.1h3.8l9.3,11.6L285.8,126.6z"/>
			<path class="st0" d="M303.9,126.6h16v3.6h-11.9v8.6h11.5v3.6h-11.5v8.7h12.3v3.6h-16.3V126.6z"/>
			<path class="st0" d="M332.8,154.6v-28.1h9.5c3.8,0,6.9,0.6,9.1,1.7c2.2,1.1,4,2.8,5.3,5.1c1.3,2.2,2,4.7,2,7.3
				c0,1.9-0.4,3.7-1.1,5.4c-0.7,1.7-1.8,3.2-3.1,4.5c-1.4,1.3-3,2.4-4.8,3c-1.1,0.4-2,0.7-2.9,0.8c-0.9,0.1-2.6,0.2-5.1,0.2H332.8z
				 M341.9,130.1h-5v20.9h5.2c2,0,3.6-0.1,4.7-0.4c1.1-0.3,2-0.6,2.8-1c0.7-0.4,1.4-0.9,2-1.6c2-2,3-4.6,3-7.6c0-3-1-5.5-3.1-7.4
				c-0.8-0.7-1.6-1.3-2.6-1.8c-1-0.5-1.9-0.8-2.8-0.9C345.2,130.2,343.8,130.1,341.9,130.1z"/>
			<path class="st0" d="M372,126.6h4v28.1h-4V126.6z"/>
			<path class="st0" d="M399.5,126.4h2.8l12.6,28.3h-4.1l-3.8-8.3h-12l-3.5,8.3h-4.1L399.5,126.4z M405.4,142.8l-4.5-10.2l-4.2,10.2
				H405.4z"/>
		</g>
	</g>
	<g>
		<path class="st0" d="M98.8,102.5H84L70.5,72.7h-43l-12.7,29.8H0L43.4,0.9h10.2L98.8,102.5z M33.2,59.7h31.4L48.3,23.1L33.2,59.7z"
			/>
		<path class="st0" d="M305.8,102.5h-14.5V23.8h-0.3l-31.1,39.1h-2.4l-31.1-39.1h-0.3v78.7h-14.5V1.5h13.6l33.5,41.5l33.6-41.5h13.5
			V102.5z"/>
		<path class="st0" d="M129.1,77.7c-14.4-14.4-14.4-37.8,0-52.2c14.4-14.4,37.8-14.4,52.2,0l10.4-10.4c-20.2-20.2-52.9-20.2-73,0
			c-20.2,20.2-20.2,52.9,0,73c20.2,20.2,52.9,20.2,73,0l-10.4-10.4C166.8,92.1,143.5,92.1,129.1,77.7z"/>
		<path class="st0" d="M381,61.9h19.4v19.3c-14.4,10.8-35,9.6-48.1-3.5c-14.4-14.4-14.4-37.8,0-52.2c14.4-14.4,37.8-14.4,52.2,0
			L415,15.1c-20.2-20.2-52.9-20.2-73,0c-20.2,20.2-20.2,52.9,0,73c20.2,20.2,52.9,20.2,73,0l-0.2-0.2l0.2,0.1V48.9H381V61.9z"/>
	</g>
</g>
</svg>
