<?xml version="1.0" encoding="utf-8"?>
<!-- Generator: Adobe Illustrator 21.0.0, SVG Export Plug-In . SVG Version: 6.00 Build 0)  -->
<svg version="1.0" id="svg2985" xmlns="http://www.w3.org/2000/svg" xmlns:xlink="http://www.w3.org/1999/xlink" x="0px" y="0px"
	 viewBox="0 0 522 64" style="enable-background:new 0 0 522 64;" xml:space="preserve">
<style type="text/css">
	.st0{fill:#FE0000;}
</style>
<path d="M142.1,18.5c-3.4,0-6.7,0.9-9.6,2.5c0-8.6,0.1-16.1,0.3-19l-17.7,3.4V7l1.7,0.2c2.5,0.3,3.4,1.8,3.7,5.1
	c0.5,6.4,0.5,40.3,0,45.7c5,1.2,10,1.8,15.1,1.9c14.1,0,22.6-8.7,22.6-22.5C158.2,26.4,151.3,18.5,142.1,18.5z M136,57.1
	c-1,0-2-0.1-3-0.3c-0.3-3.8-0.5-19.5-0.4-33.3c1.3-0.5,2.7-0.7,4.1-0.7c5.8,0,9.1,6.8,9.1,15.2C145.7,48.9,141.7,57.1,136,57.1
	L136,57.1z M48.4,18.9l-2.7,0.7C43.2,11.6,39.4,7,32.2,7H23c-0.4,5.2-0.6,13.7-0.5,22.6l6.2-0.2c4.1-0.1,5.8-3.2,6.8-7.7h2.3v18.9
	h-2.3c-1-4.6-2.7-7.6-6.9-7.8l-6.2-0.2c0.1,6.8,0.3,12.5,0.5,15.9c0.4,5,1.8,7.2,5.4,7.8l3.1,0.3v2.3H1.5v-2.3L4,56.3
	c3.5-0.5,5-2.7,5.4-7.8c0.7-8.3,0.8-25.5,0-35.1C9,8.4,7.6,6.2,4,5.7L1.5,5.4V3.2h46.7L48.4,18.9z M63.3,18c13.3,0,19.8,9,19.8,20.9
	s-7.4,21-20.7,21s-19.9-9-19.9-20.8C42.6,27.2,50,18,63.3,18z M62.7,20.6c-5.9,0-7.5,7.9-7.5,18.4s2.6,18.4,8,18.4s7.5-7.9,7.5-18.4
	S68,20.6,62.7,20.6L62.7,20.6z M161.5,39.4c0-11,6.9-21.3,20.6-21.3c11.1,0,16.4,8.2,16.5,19h-24.8c-0.3,9.8,4.7,17,14.2,17
	c4.1,0,6.4-1,9-2.9l1.1,1.4c-2.7,3.8-8.5,7.4-16.1,7.4C169.9,59.9,161.5,51.5,161.5,39.4z M173.8,34.3l12.4-0.3
	c0.1-5.5-0.8-13.4-5.3-13.4C176.5,20.7,173.9,28.1,173.8,34.3L173.8,34.3z M230.4,30.4l-2,0.5c-2.1-7-5.4-10-10.2-10
	c-3.2,0-5.5,2.4-5.5,5.9s2.6,5.3,10.1,8.2s9.6,5.8,9.6,11.4c0,8.4-6.4,13.5-17,13.5c-4.8,0-9.5-0.9-14-2.5l-0.3-11.6l2-0.5
	c2.9,8.1,6.7,11,11.7,11s6.6-3,6.6-6.2s-1.8-5-8.6-7.4s-10.8-5-10.8-12S208,18,218,18c4.6,0,9,0.8,12,2.1L230.4,30.4z M113.4,30.1
	c-5.4-3.6-11.2-2-12.3-0.1c-0.4,7.1-0.3,14.3,0.1,21.4c0.3,3.3,1.3,4.8,3.7,5.1l3.2,0.2V59H83.5v-2.3l1.7-0.2
	c2.5-0.3,3.4-1.8,3.7-5.1c0.5-7.7,0.5-15.4,0-23.1c-0.3-3.3-1.3-4.8-3.7-5.1L83.5,23v-1.6l17.7-3.4l-0.2,9.2
	c4.1-9.5,12.3-10.8,16.7-8.1L113.4,30.1z"/>
<path class="st0" d="M319.8,4.6l0.7-2.4h-16.7l-0.7,2.4h2.5c1.9,0,3.1,0.3,3.1,3.1c0,1.2-1.1,3.8-2.6,6.6l-16.4,30.3h-0.2l-2-43
	h-6.9l-25.7,43h-0.2l-0.9-32.8c-0.1-4.3,0.3-7.3,4.3-7.3h1.9l0.7-2.4h-25.2L235,4.6h2.9c3.8,0,4.2,5.9,4.3,8.9l1.7,49.1h5.4
	c1.7-3.4,3.3-6.9,5.2-10.1l21.5-36.7h0.2l2,46.8h5.4c1.7-3.4,3.4-6.8,5.2-10.1l20.7-38c1.7-3.1,4.9-9.9,8.9-9.9H319.8z M333.9,27.1
	c0,9.5-4.4,33-15.2,33c-4.4,0-5.5-2.7-5.5-9.2c0-7.8,5.4-30.7,15.4-30.7C332.4,20.2,333.9,22.5,333.9,27.1 M344.8,34
	c0-8.7-6.2-16.2-16.9-16.2c-15,0-25.6,13.2-25.6,26.9c0,9.5,6.2,17.9,16.9,17.9C334.2,62.5,344.8,48.6,344.8,34 M417.8,49.1h-2.9
	c-0.9,2.6-3.1,8.7-6.6,8.7c-1.3,0-2.1-1-2.1-2.2c0-1.4,0.6-2.9,2-7.3l4-12.3c1-3.1,1.7-6.3,1.7-9.1c0-5.5-3.4-9.2-8.6-9.2
	c-6.3,0-12.9,5.5-16,10.4h-0.2c-0.1-6.4-2.5-10.4-8.6-10.4c-6.1,0-12.8,5.5-16,10.6h-0.2l3.1-10.6c-4.4,0.8-9.2,1.3-13.8,1.3h-6.5
	l-0.7,2.4h3.6c2.4,0,3.7,0.1,3.7,2.4c0,1.2-0.4,3-1,5.2l-9.2,32.1h11.7l4.8-16.5c1.5-5.3,7.2-20.7,14.9-20.7c1.7,0,3,0.9,3,2.9
	c0,1.8-0.7,4.1-1.4,6.7l-8.1,27.5h11.7l4.8-16.5c1.5-5.3,7.2-20.7,14.9-20.7c1.7,0,3,0.9,3,2.9c0,1.8-0.6,4.1-1.4,6.7l-3.5,10.7
	c-1.1,3.2-1.8,6.7-1.8,9c0,5.3,2.3,9.2,7.7,9.2C411.7,62.5,415.3,56.1,417.8,49.1 M448,30.2c0,6.9-4.6,27.6-14.4,27.6
	c-3.8,0-4.9-3.3-4.9-6.6c0-6.6,4.9-29.3,14.2-29.3C447,21.9,448,27.1,448,30.2 M454.3,55.6c0-1.5,1.2-6,1.6-7.4l8.5-29.1h-11.9
	l-2.3,8.1h-0.2c-0.3-6.4-4.1-9.5-10.2-9.5c-13.9,0-21.9,16.5-21.9,28.7c0,7.3,2.9,16,11.6,16c6.9,0,11.1-4,14.3-9.5h0.2
	c0.2,3,0.2,9.5,7.7,9.5c8.1,0,11.8-6.4,14.2-13.3h-2.9c-0.9,2.6-3.1,8.6-6.6,8.6C455.1,57.8,454.3,56.8,454.3,55.6 M503.7,55.6
	c0-1.4,0.6-2.9,2-7.3l4-12.3c1-3.1,1.7-6.3,1.7-9.1c0-5.5-3.4-9.2-8.6-9.2c-6.1,0-12.8,5.5-16,10.6h-0.2l3.1-10.6
	c-4.4,0.8-9.2,1.3-13.9,1.3h-6.5l-0.7,2.4h3.6c2.4,0,3.7,0.1,3.7,2.4c0,1.2-0.4,3-1,5.2l-9.2,32.1h11.7l4.8-16.5
	c1.5-5.3,7.2-20.7,14.9-20.7c1.7,0,3,0.9,3,2.9c0,1.8-0.6,4.1-1.4,6.7L495,44.3c-1.1,3.2-1.8,6.7-1.8,9c0,5.3,2.3,9.2,7.7,9.2
	c8.1,0,11.8-6.4,14.2-13.4h-2.9c-0.9,2.6-3.1,8.7-6.5,8.7C504.5,57.8,503.7,56.8,503.7,55.6"/>
</svg>
