<?xml version="1.0" encoding="utf-8"?>
<!-- Generator: Adobe Illustrator 21.0.0, SVG Export Plug-In . SVG Version: 6.00 Build 0)  -->
<svg version="1.1" id="svg2985" xmlns="http://www.w3.org/2000/svg" xmlns:xlink="http://www.w3.org/1999/xlink" x="0px" y="0px"
	 width="622px" height="64px" viewBox="0 0 622 64" style="enable-background:new 0 0 622 64;" xml:space="preserve">
<style type="text/css">
	.st0{fill:#FE0000;}
</style>
<path d="M142.1,18.5c-3.4,0-6.7,0.9-9.6,2.5c0-8.6,0.1-16.1,0.3-19l-17.7,3.4V7l1.7,0.2c2.5,0.3,3.4,1.8,3.7,5.1
	c0.5,6.4,0.5,40.3,0,45.7c5,1.2,10,1.8,15.1,1.9c14.1,0,22.6-8.7,22.6-22.5C158.2,26.4,151.3,18.5,142.1,18.5z M136,57.1
	c-1,0-2-0.1-3-0.3c-0.3-3.8-0.5-19.5-0.4-33.3c1.3-0.5,2.7-0.7,4.1-0.7c5.8,0,9.1,6.8,9.1,15.2C145.7,48.9,141.7,57.1,136,57.1
	L136,57.1z M48.4,18.9l-2.7,0.7C43.2,11.6,39.4,7,32.2,7H23c-0.4,5.2-0.6,13.7-0.5,22.6l6.2-0.2c4.1-0.1,5.8-3.2,6.8-7.7h2.3v18.9
	h-2.3c-1-4.6-2.7-7.6-6.9-7.8l-6.2-0.2c0.1,6.8,0.3,12.5,0.5,15.9c0.4,5,1.8,7.2,5.4,7.8l3.1,0.3v2.3H1.5v-2.3L4,56.3
	c3.5-0.5,5-2.7,5.4-7.8c0.7-8.3,0.8-25.5,0-35.1C9,8.4,7.6,6.2,4,5.7L1.5,5.4V3.2h46.7L48.4,18.9z M63.3,18c13.3,0,19.8,9,19.8,20.9
	s-7.4,21-20.7,21s-19.9-9-19.9-20.8C42.6,27.2,50,18,63.3,18z M62.7,20.6c-5.9,0-7.5,7.9-7.5,18.4s2.6,18.4,8,18.4s7.5-7.9,7.5-18.4
	S68,20.6,62.7,20.6L62.7,20.6z M161.5,39.4c0-11,6.9-21.3,20.6-21.3c11.1,0,16.4,8.2,16.5,19h-24.8c-0.3,9.8,4.7,17,14.2,17
	c4.1,0,6.4-1,9-2.9l1.1,1.4c-2.7,3.8-8.5,7.4-16.1,7.4C169.9,59.9,161.5,51.5,161.5,39.4z M173.8,34.3l12.4-0.3
	c0.1-5.5-0.8-13.4-5.3-13.4C176.5,20.7,173.9,28.1,173.8,34.3L173.8,34.3z M230.4,30.4l-2,0.5c-2.1-7-5.4-10-10.2-10
	c-3.2,0-5.5,2.4-5.5,5.9s2.6,5.3,10.1,8.2s9.6,5.8,9.6,11.4c0,8.4-6.4,13.5-17,13.5c-4.8,0-9.5-0.9-14-2.5l-0.3-11.6l2-0.5
	c2.9,8.1,6.7,11,11.7,11s6.6-3,6.6-6.2s-1.8-5-8.6-7.4s-10.8-5-10.8-12S208,18,218,18c4.6,0,9,0.8,12,2.1L230.4,30.4z M113.4,30.1
	c-5.4-3.6-11.2-2-12.3-0.1c-0.4,7.1-0.3,14.3,0.1,21.4c0.3,3.3,1.3,4.8,3.7,5.1l3.2,0.2V59H83.5v-2.3l1.7-0.2
	c2.5-0.3,3.4-1.8,3.7-5.1c0.5-7.7,0.5-15.4,0-23.1c-0.3-3.3-1.3-4.8-3.7-5.1L83.5,23v-1.6l17.7-3.4l-0.2,9.2
	c4.1-9.5,12.3-10.8,16.7-8.1L113.4,30.1z"/>
<g>
	<path class="st0" d="M285.1,44.5c0,2.2-0.5,4.3-1.4,6.2c-0.9,1.8-2.1,3.3-3.8,4.5c-1.7,1.3-3.6,2.2-5.5,2.8c-2,0.6-4.3,0.9-6.8,0.9
		h-26.1V3.2h29c1.9,0,3.6,0.4,5.1,1.3c1.8,1.1,3.1,2.1,3.9,3.2c1.2,1.4,2,2.9,2.5,4.5c0.6,1.7,0.9,3.5,0.9,5.2
		c0,2.9-0.6,5.5-1.9,7.7c-1.4,2.3-3.3,4.1-5.8,5.2c3.1,0.9,5.5,2.6,7.2,5.1C284.1,38,285.1,41,285.1,44.5z M252.1,12.5v14h14
		c1.7,0,3.2-0.6,4.5-1.9c1.3-1.4,1.9-3.2,1.9-5.2c0-2.1-0.6-3.8-1.7-5.1c-1.2-1.3-2.6-1.9-4.3-1.9H252.1z M274.5,42.5
		c0-0.8-0.2-1.7-0.6-2.9c-0.4-1.1-0.8-1.8-1.3-2.3c-0.5-0.6-1.1-1.1-1.9-1.6c-0.7-0.4-1.5-0.6-2.6-0.6h-16.1v14.6h15.6
		c0.7,0,1.6-0.2,2.8-0.6c0.6-0.2,1.3-0.7,2-1.4c0.7-0.7,1.2-1.4,1.4-2.3C274.3,44.2,274.5,43.2,274.5,42.5z M314,27.3
		c-2.8,0-5.6,0.6-8.3,1.9c-2.3,1.1-4.1,2.8-5.2,5.2v24.5h-10.3v-41h9.4V27c1.4-2.7,3.2-4.9,5.4-6.7c2.2-1.7,4.5-2.6,6.9-2.6h1.3
		c0.1,0,0.2,0,0.4,0.1c0.2,0,0.3,0.1,0.4,0.1L314,27.3z M328.2,59.1c-1.8,0-3.6-0.3-5.4-0.9c-1.7-0.6-3.2-1.4-4.3-2.6
		s-2.1-2.5-2.9-4.1c-0.7-1.4-1-3-1-5.1c0-1.8,0.4-3.6,1.3-5.2c0.9-1.5,2-2.9,3.5-4.1c1.4-1.2,3.1-2,5.4-2.6c2-0.6,4.3-0.9,6.8-0.9
		c1.7,0,3.5,0.1,5.2,0.4c1.8,0.3,3.4,0.7,4.6,1.3v-2.3c0-2.5-0.8-4.5-2.3-6.1c-1.4-1.4-3.7-2.2-6.7-2.2c-2,0-4.1,0.4-6.2,1.2
		c-1.4,0.5-3.5,1.6-6.2,3.5l-3.2-6.7c4.9-3.4,10.5-5.1,16.7-5.1c5.9,0,10.4,1.4,13.5,4.2c3.1,2.8,4.6,6.9,4.6,12.2v12.5
		c0,1.1,0.2,1.8,0.7,2.3c0.5,0.5,1.2,0.7,2.2,0.7v8.7c-0.2,0-0.6,0.1-1.3,0.2c-0.7,0.1-1.2,0.2-1.4,0.2h-2.2c-1.9,0-3.4-0.4-4.3-1.3
		c-1.1-1-1.7-2.1-2-3.3l-0.1-2.3c-1.8,2.5-4,4.3-6.5,5.4C333.9,58.5,331.2,59.1,328.2,59.1z M331.1,51.7c1.4,0,3.1-0.3,4.9-1
		c1.5-0.6,2.8-1.4,3.6-2.3c1.2-0.9,1.7-1.8,1.7-2.9v-4.6c-1.4-0.5-2.7-0.9-4.1-1.2c-1-0.2-2.3-0.3-4.1-0.3c-2.6,0-4.8,0.6-6.5,1.7
		c-1.6,1.1-2.5,2.6-2.5,4.5c0,1.7,0.7,3.2,2,4.3C327.7,51.1,329.3,51.7,331.1,51.7z M396.4,58.8h-10.1V36.1c0-3.3-0.6-5.6-1.7-7.1
		c-1.3-1.5-2.8-2.3-4.6-2.3c-0.9,0-1.9,0.2-3,0.7c-1.4,0.6-2.4,1.2-3,1.7c-1.3,1.1-2.1,1.9-2.6,2.6c-0.8,1.2-1.3,2.3-1.6,3.5v23.6
		h-10.3V17.7h9.3v8.1c1.4-2.4,3.4-4.3,6.1-5.8c2.6-1.4,5.8-2,9.6-2c2.5,0,4.5,0.4,6.1,1.3c1.4,0.8,2.7,2,3.6,3.6
		c1.2,1.9,1.8,3.6,2,4.9c0.4,2.5,0.6,4.4,0.6,5.8v25.2H396.4z M419.9,58.8c-2.8,0-5.4-0.6-7.7-1.7c-2.6-1.2-4.6-2.5-5.9-3.9
		c-1.5-1.6-2.8-3.9-3.9-6.7c-1-2.7-1.4-5.4-1.4-8.1c0-2.9,0.4-5.5,1.3-8c0.9-2.5,2.1-4.7,3.8-6.7c1.5-1.9,3.4-3.4,5.6-4.3
		c2.3-1.1,4.7-1.6,7.1-1.6c3,0,5.6,0.7,8,2.2c2.5,1.5,4.3,3.4,5.5,5.5V3.2h10.1v43.4c0,1.1,0.2,1.8,0.7,2.3c0.5,0.5,1.2,0.7,2,0.7
		l-0.1,8.5c-2.5,0.4-4.2,0.6-4.9,0.6c-1.8,0-3.3-0.4-4.3-1.3c-1.1-1-1.7-2.1-2-3.3v-2.6c-1.1,1.9-3,3.7-5.9,5.2
		C425.2,58.1,422.6,58.8,419.9,58.8z M422.5,50.6c0.6,0,1.5-0.2,2.9-0.6c1.1-0.3,2-0.7,2.9-1.3c0.8-0.5,1.5-1.2,2.3-2.2
		c0.8-1,1.4-1.9,1.7-2.8v-9.4c-0.9-2.3-2.3-4.2-4.3-5.6s-4.1-2.2-6.1-2.2c-1.3,0-2.7,0.3-4.2,1c-1.3,0.6-2.4,1.5-3.3,2.8
		c-0.9,1.2-1.6,2.5-2.2,3.9c-0.5,1.2-0.7,2.7-0.7,4.6c0,1.6,0.3,3.2,0.9,4.6c0.6,1.4,1.4,2.7,2.3,3.6c1.1,1.1,2.2,1.9,3.5,2.5
		C419.9,50.2,421.3,50.6,422.5,50.6z M489.6,3.2h10L466.9,59h-7.4L449.4,3.2h9.4l6.8,41.7L489.6,3.2z M524,28.4
		c0.6,1.7,1,3.9,1.2,6.5c0,3.1-0.7,6.1-2,9.1c-1.3,2.8-3,5.3-5.2,7.5c-2.3,2.3-4.9,4.1-7.7,5.4c-3,1.4-6.1,2-9.4,2
		c-2.3,0-4.6-0.5-6.8-1.4c-1.9-0.9-3.6-2.1-5.1-3.6c-1.2-1.4-2.2-3.2-3-5.5c-0.8-2.1-1.2-4.2-1.2-6.4c0-3.2,0.7-6.3,2-9.3
		c1.2-2.6,2.9-5.1,5.4-7.5c2.3-2.3,4.9-4.1,7.7-5.4c3-1.4,6.1-2,9.3-2c2.4,0,4.6,0.4,6.7,1.3c1.9,0.9,3.6,2.1,5.1,3.8
		C522,24.2,523.1,26,524,28.4z M494.4,45.2c0.5,1.2,1,2.1,1.6,2.9c0.6,0.8,1.4,1.4,2.5,1.9c2.2,1.1,5,0.9,8.3-0.6
		c2-1,3.6-2.1,4.6-3.3c1.4-1.6,2.6-3.3,3.3-4.9c0.8-1.5,1.2-3.5,1.2-5.8c0-1.4-0.2-2.7-0.6-3.8c-0.3-1.1-0.8-2.1-1.6-3
		c-0.7-0.8-1.5-1.4-2.6-1.9c-1-0.5-2-0.7-3-0.7c-1.8,0-3.5,0.4-5.1,1.3c-1.7,0.9-3.3,2-4.6,3.3c-1.4,1.4-2.5,3-3.3,4.9
		c-0.8,1.6-1.2,3.6-1.2,5.8C493.8,42.8,494,44.1,494.4,45.2z M532.6,17.8h9.1l-9.1,41.3h-9.1L532.6,17.8z M535.5,4.8h9.1l-2,9.4
		h-9.1L535.5,4.8z M567.4,45.6l0.7-1.4l8.7,2.6l-1.3,2.3c-0.8,1.4-1.9,2.7-3.3,3.9c-1.5,1.4-3,2.5-4.3,3.2c-1.6,0.9-3.4,1.5-5.2,2
		c-1.6,0.4-3.5,0.6-5.6,0.6c-2.5,0-4.8-0.4-6.8-1.3c-1.8-0.8-3.5-2-5.1-3.8c-1.4-1.4-2.4-3.3-3.2-5.5c-0.8-2.1-1.2-4.3-1.2-6.5
		c0-3.2,0.7-6.3,2-9.3c1.3-2.8,3-5.3,5.2-7.5c2.3-2.3,4.9-4.1,7.7-5.4c2.8-1.3,6-1.9,9.6-1.9c3.8,0,6.9,0.9,9.6,2.6
		c2.3,1.7,4,4.2,4.9,7.4l0.6,2l-8.8,2.5l-0.6-1.9c-0.4-1.4-1.2-2.5-2.3-3.2c-1.3-0.8-2.7-1.2-4.3-1.2c-1.9,0-3.7,0.4-5.2,1.2
		c-1.8,0.9-3.3,2-4.5,3.3c-1.4,1.4-2.5,3-3.3,4.9c-0.8,1.6-1.2,3.6-1.2,5.8c0,1.5,0.2,2.8,0.6,3.9c0.3,1.1,0.8,2.1,1.6,3
		c0.6,0.8,1.4,1.4,2.5,1.9c1.6,0.8,3.6,0.9,5.9,0.3c0.9-0.3,1.8-0.7,2.9-1.2c0.5-0.3,1.3-0.9,2.5-1.7
		C566.7,46.6,567.2,46,567.4,45.6z M596.2,59c-2.6,0-4.9-0.4-6.9-1.3c-1.9-0.9-3.7-2.1-5.2-3.8c-1.4-1.4-2.4-3.3-3.2-5.5
		c-0.8-2.1-1.2-4.3-1.2-6.7c0-3.2,0.6-6.2,1.9-9c1.1-2.7,2.8-5.3,5.2-7.7c2.3-2.3,4.9-4.1,7.7-5.4c3.2-1.4,6.5-2,9.8-2
		c1.5,0,3.3,0.2,5.2,0.7c1.3,0.3,2.8,1,4.5,2.2c1.3,1,2.3,2.2,3,3.8c0.8,1.5,1.2,3.2,1.2,5.1c0,4.2-2,7.5-5.9,9.7
		c-3.6,2-8.9,3-16.1,3c-0.4,0-1.1,0-2-0.1c-1,0-1.7-0.1-2.3-0.1h-3c0,0.8,0.2,1.9,0.6,3.5c0.3,1.1,0.8,2.1,1.6,3
		c0.7,0.8,1.5,1.4,2.5,2c1.8,1,4,1.1,6.5,0.3c1.2-0.3,2.2-0.7,3-1.2c0.8-0.4,1.6-1,2.5-1.9c1-1,1.6-1.7,2-2.3l0.7-1.3l8.3,2.5
		l-1.6,2.3c-0.9,1.4-2,2.7-3.5,4.1c-1.9,1.5-3.4,2.6-4.5,3.2c-1.6,0.9-3.4,1.5-5.2,2C599.6,58.7,597.7,59,596.2,59z M590.4,34.5h1.9
		c4.8,0.3,8.4,0.2,10.9-0.3c1.8-0.3,3.2-0.7,4.2-1.3c0.9-0.4,1.4-0.9,1.7-1.6c0.3-0.6,0.4-1.2,0.4-1.9c0-1.2-0.4-2.1-1.3-2.8
		c-1.1-0.7-2.6-1-4.5-1c-1.9,0-3.6,0.3-5.1,0.9c-1.4,0.5-2.8,1.4-4.2,2.6c-1,0.9-2,2.1-3,3.6c-0.1,0.2-0.3,0.5-0.5,0.9
		C590.7,34,590.5,34.3,590.4,34.5z"/>
</g>
</svg>
