<?xml version="1.0" encoding="utf-8"?>
<!-- Generator: Adobe Illustrator 21.0.0, SVG Export Plug-In . SVG Version: 6.00 Build 0)  -->
<svg version="1.1" id="Layer_1" xmlns="http://www.w3.org/2000/svg" xmlns:xlink="http://www.w3.org/1999/xlink" x="0px" y="0px"
	 width="104px" height="36px" viewBox="0 0 104 36" style="enable-background:new 0 0 104 36;" xml:space="preserve">
<style type="text/css">
	.st0{display:none;enable-background:new    ;}
	.st1{display:inline;fill:#FFFFFF;}
	.st2{fill:#FFFFFF;}
	.st3{enable-background:new    ;}
	.st4{font-family:'MyriadPro-Regular';}
	.st5{font-size:15.9127px;}
</style>
<text transform="matrix(1 0 0 1 -52.021 228.6743)" style="display:none;fill:#FFFFFF;enable-background:new    ; font-family:'MyriadPro-Semibold'; font-size:80px; letter-spacing:2;">Available on the</text>
<g>
	<g id="bg">
		<g>
			<path d="M0,32.5C0,34.4,1.6,36,3.5,36h96.1c1.9,0,3.5-1.6,3.5-3.5v-29c0-1.9-1.6-3.5-3.5-3.5H3.5C1.6,0,0,1.6,0,3.5V32.5z"/>
		</g>
	</g>
	<g id="iPhone">
		<g>
			<g>
				<path class="st2" d="M19,6.8h-8.8C9,6.8,8,7.8,8,9v19.8c0,1.2,1,2.2,2.2,2.2H19c1.2,0,2.2-1,2.2-2.2V9.1
					C21.1,7.8,20.2,6.8,19,6.8z M13.4,8.9h2.2c0.1,0,0.2,0.1,0.2,0.2s-0.1,0.2-0.2,0.2h-2.2c-0.1,0-0.2-0.1-0.2-0.2
					S13.4,8.9,13.4,8.9z M14.6,30c-0.7,0-1.3-0.6-1.3-1.3c0-0.7,0.6-1.3,1.3-1.3c0.7,0,1.3,0.6,1.3,1.3C15.8,29.5,15.3,30,14.6,30z
					 M20.1,26.9H9V10.8h11V26.9L20.1,26.9z"/>
			</g>
		</g>
	</g>
	<g class="st3">
		<path class="st2" d="M31.7,24.6L30.6,28h-1.4l3.7-10.7h1.7L38.2,28h-1.5l-1.1-3.4H31.7z M35.2,23.5l-1-3.1
			c-0.2-0.7-0.4-1.4-0.6-1.9l0,0c-0.2,0.6-0.3,1.3-0.6,1.9l-1,3.1H35.2z"/>
		<path class="st2" d="M39.6,22.8c0-1,0-1.8-0.1-2.5h1.3l0.1,1.4l0,0c0.6-1,1.5-1.5,2.7-1.5c1.8,0,3.3,1.6,3.3,3.9
			c0,2.8-1.7,4.2-3.5,4.2c-1,0-1.9-0.5-2.4-1.2l0,0v4.2h-1.4C39.6,31.2,39.6,22.8,39.6,22.8z M41,24.8c0,0.2,0,0.4,0.1,0.6
			c0.2,1,1.1,1.6,2.1,1.6c1.5,0,2.3-1.2,2.3-3c0-1.5-0.8-2.9-2.3-2.9c-1,0-1.8,0.7-2.1,1.8C41,23.1,41,23.3,41,23.5V24.8z"/>
		<path class="st2" d="M48.6,22.8c0-1,0-1.8-0.1-2.5h1.3l0.1,1.4l0,0c0.6-1,1.5-1.5,2.7-1.5c1.8,0,3.3,1.6,3.3,3.9
			c0,2.8-1.7,4.2-3.5,4.2c-1,0-1.9-0.5-2.4-1.2l0,0v4.2h-1.4C48.6,31.2,48.6,22.8,48.6,22.8z M50,24.8c0,0.2,0,0.4,0.1,0.6
			c0.2,1,1.1,1.6,2.1,1.6c1.5,0,2.3-1.2,2.3-3c0-1.5-0.8-2.9-2.3-2.9c-1,0-1.8,0.7-2.1,1.8C50,23.1,50,23.3,50,23.5V24.8z"/>
	</g>
	<text transform="matrix(1 0 0 1 55.5322 27.9476)" class="st2 st4 st5"> </text>
	<g class="st3">
		<path class="st2" d="M58.9,26.3c0.6,0.4,1.5,0.7,2.5,0.7c1.4,0,2.2-0.7,2.2-1.8c0-1-0.6-1.6-2-2.2c-1.8-0.6-2.8-1.5-2.8-3
			c0-1.7,1.4-2.9,3.4-2.9c1.1,0,1.9,0.2,2.4,0.6l-0.4,1.1c-0.3-0.2-1-0.5-2-0.5c-1.4,0-2,0.9-2,1.6c0,1,0.6,1.5,2.2,2.1
			c1.8,0.7,2.7,1.6,2.7,3.1c0,1.7-1.2,3.1-3.8,3.1c-1,0-2.2-0.3-2.7-0.7L58.9,26.3z"/>
		<path class="st2" d="M68.5,18v2.2h2v1h-2v4.2c0,1,0.2,1.5,1,1.5c0.4,0,0.6-0.1,0.8-0.1l0.1,1c-0.2,0.1-0.7,0.2-1.3,0.2
			c-0.6,0-1.2-0.2-1.5-0.6c-0.4-0.4-0.6-1.1-0.6-2v-4.2h-1.2v-1H67v-1.8L68.5,18z"/>
		<path class="st2" d="M79,24c0,2.9-2,4.1-3.8,4.1c-2.1,0-3.7-1.5-3.7-4c0-2.6,1.7-4.1,3.8-4.1C77.4,20,79,21.6,79,24z M72.8,24.1
			c0,1.7,1,3,2.3,3c1.4,0,2.3-1.3,2.3-3c0-1.3-0.6-3-2.3-3S72.8,22.7,72.8,24.1z"/>
		<path class="st2" d="M80.7,22.7c0-0.9,0-1.7-0.1-2.4h1.2l0.1,1.5H82c0.3-1,1.2-1.7,2.2-1.7c0.2,0,0.2,0,0.4,0.1v1.4
			c-0.2,0-0.3-0.1-0.5-0.1c-1,0-1.7,0.7-1.8,1.8c0,0.2-0.1,0.4-0.1,0.6V28h-1.4L80.7,22.7L80.7,22.7z"/>
		<path class="st2" d="M86.5,24.4c0,1.9,1.3,2.6,2.6,2.6c1,0,1.6-0.2,2.2-0.4l0.2,1c-0.5,0.2-1.4,0.5-2.6,0.5
			c-2.4,0-3.8-1.6-3.8-3.9s1.4-4.2,3.6-4.2c2.5,0,3.2,2.2,3.2,3.6c0,0.3,0,0.5-0.1,0.6L86.5,24.4L86.5,24.4z M90.6,23.3
			c0-0.9-0.4-2.2-1.9-2.2c-1.4,0-2,1.3-2.2,2.2H90.6z"/>
	</g>
	<g class="st3">
		<path class="st2" d="M35.2,7.3v5h0.5l-0.1,1.9H35L35,12.8h-3.5l-0.1,1.4h-0.6l-0.1-1.9h0.4c0.2-0.4,0.4-0.8,0.6-1.2
			c0.2-0.6,0.2-1.4,0.2-2.3V7.3H35.2z M32.8,9c0,0.9-0.1,1.6-0.2,2.2c-0.1,0.4-0.3,0.7-0.5,1h2.5V8h-1.8V9z"/>
		<path class="st2" d="M40.1,10.8c0,1.4-1,2.1-2,2.1c-1,0-1.9-0.8-1.9-2.1c0-1.4,0.9-2.1,2-2.1C39.4,8.8,40.1,9.6,40.1,10.8z
			 M37,10.9c0,0.9,0.5,1.5,1.2,1.5s1.2-0.6,1.2-1.5c0-0.6-0.3-1.5-1.2-1.5C37.4,9.4,37,10.1,37,10.9z"/>
		<path class="st2" d="M43.8,12.8c-0.2,0.1-0.6,0.2-1.1,0.2c-1.2,0-2-0.8-2-2s0.8-2.1,2.2-2.1c0.4,0,0.8,0.1,1,0.2l-0.2,0.5
			c-0.2-0.1-0.5-0.2-0.8-0.2c-0.9,0-1.4,0.6-1.4,1.5c0,0.9,0.6,1.5,1.4,1.5c0.4,0,0.7-0.1,0.9-0.2L43.8,12.8z"/>
		<path class="st2" d="M47.5,8.9v0.6h-1.3v3.4h-0.6V9.5h-1.3V8.9H47.5z"/>
		<path class="st2" d="M48.6,8.9l0.9,2.3c0.1,0.2,0.2,0.6,0.2,0.8l0,0c0.1-0.2,0.2-0.6,0.2-0.8l0.8-2.3h0.8l-1.1,2.8
			c-0.5,1.4-0.9,2.1-1.4,2.5c-0.3,0.3-0.7,0.4-0.9,0.5L48,14.1c0.2-0.1,0.4-0.2,0.6-0.3c0.2-0.2,0.5-0.4,0.6-0.8
			c0-0.1,0.1-0.2,0.1-0.2c0-0.1,0-0.1-0.1-0.2L47.8,9L48.6,8.9L48.6,8.9z"/>
		<path class="st2" d="M55.4,8.9v4h-0.7V9.5h-1.8v3.4h-0.7v-4H55.4z"/>
		<path class="st2" d="M57.4,8.9v1.6h1.8V8.9h0.7v4h-0.7v-1.8h-1.9v1.8h-0.7v-4H57.4z"/>
		<path class="st2" d="M64.7,10.8c0,1.4-1,2.1-2,2.1c-1,0-1.9-0.8-1.9-2.1c0-1.4,0.9-2.1,2-2.1C63.9,8.8,64.7,9.6,64.7,10.8z
			 M61.5,10.9c0,0.9,0.5,1.5,1.2,1.5s1.2-0.6,1.2-1.5c0-0.6-0.3-1.5-1.2-1.5S61.5,10.1,61.5,10.9z"/>
		<path class="st2" d="M67.4,9c0.2-0.1,0.8-0.1,1.3-0.1c0.6,0,1.8,0.1,1.8,1c0,0.5-0.4,0.8-0.8,0.9l0,0c0.6,0.1,1,0.4,1,1
			c0,1-1.3,1.2-2.1,1.2c-0.5,0-0.9,0-1.1-0.1L67.4,9L67.4,9z M68,12.4c0.2,0,0.3,0,0.6,0c0.5,0,1.2-0.1,1.2-0.7S69.2,11,68.5,11H68
			V12.4z M68,10.6h0.6c0.6,0,1.1-0.2,1.1-0.6c0-0.4-0.3-0.6-1-0.6c-0.2,0-0.4,0-0.6,0L68,10.6L68,10.6z"/>
	</g>
</g>
</svg>
