<?xml version="1.0" encoding="utf-8"?>
<!-- Generator: Adobe Illustrator 21.0.0, SVG Export Plug-In . SVG Version: 6.00 Build 0)  -->
<svg version="1.0" id="Layer_1" xmlns="http://www.w3.org/2000/svg" xmlns:xlink="http://www.w3.org/1999/xlink" x="0px" y="0px"
	 viewBox="0 0 25 25" style="enable-background:new 0 0 25 25;" xml:space="preserve">
<style type="text/css">
	.st0{fill:#FFFFFF;}
</style>
<path id="instagram-icon" class="st0" d="M17,9.5h7v10.7c0,2.7-2.1,4.7-4.7,4.7H4.7C2.1,25,0,22.9,0,20.3V9.5h7
	c-0.7,1-1.1,2.3-1.1,3.5c0,3.4,2.7,6.1,6.1,6.1s6.1-2.7,6.1-6.1C18.1,11.7,17.7,10.5,17,9.5z M24,5.6v3.1h-7.7
	c-1.1-1.1-2.7-1.8-4.3-1.8S8.7,7.6,7.7,8.7H0V5.6c0-1.6,0.8-3,2-3.9v5.1h0.9V1.1C3.1,1,3.4,1,3.6,0.9v5.9h1V0.9c0.1,0,0.1,0,0.1,0
	h0.6v5.9h0.9V0.9h12.9C21.9,0.9,24,3,24,5.6z M21.9,3.7c0-0.5-0.3-0.7-0.7-0.7h-2.6c-0.5,0-0.7,0.3-0.7,0.7v2.7
	c0,0.5,0.3,0.7,0.7,0.7h2.5c0.5,0,0.7-0.3,0.7-0.7L21.9,3.7L21.9,3.7z M7.3,13.1c0-1.4,0.6-2.7,1.6-3.5c0.3-0.3,0.7-0.5,1.2-0.7
	c0.6-0.3,1.3-0.5,1.9-0.5s1.3,0.1,1.9,0.5c0.5,0.2,0.8,0.5,1.2,0.7c0.9,0.9,1.6,2.1,1.6,3.5c0,2.6-2.1,4.7-4.7,4.7
	S7.3,15.7,7.3,13.1z M8.5,13.1c0,1.9,1.6,3.5,3.5,3.5s3.5-1.6,3.5-3.5S13.9,9.6,12,9.6S8.5,11.1,8.5,13.1z"/>
</svg>
