<?xml version="1.0" encoding="utf-8"?>
<!-- Generator: Adobe Illustrator 21.0.0, SVG Export Plug-In . SVG Version: 6.00 Build 0)  -->
<svg version="1.1" id="svg2985" xmlns="http://www.w3.org/2000/svg" xmlns:xlink="http://www.w3.org/1999/xlink" x="0px" y="0px"
	 width="445.8px" height="66px" viewBox="0 0 445.8 66" style="enable-background:new 0 0 445.8 66;" xml:space="preserve">
<style type="text/css">
	.st0{enable-background:new    ;}
	.st1{fill:#FE0000;}
	.st2{fill:#FFFFFF;}
</style>
<g class="st0">
	<path class="st1" d="M269.5,4v2.3c-2.1,0-3.6,0.2-4.6,0.5c-1.4,0.5-2.1,1.6-2.1,3.1c0,0.3,0,0.6,0,0.8c0,0.3,0.1,0.6,0.1,0.8
		l4.5,35L284,20.3c1.3-2.1,2.5-4.2,3.5-6.3s1.6-3.7,1.6-4.9s-0.5-2-1.6-2.4c-0.7-0.2-2-0.4-4-0.4V4h16.8v2.3
		c-1.4,0.4-2.4,0.8-3.1,1.3c-1.1,0.8-2.3,2.2-3.5,4.2l-33,52.7h-2.8l-6.7-44.8c-1-6.4-1.8-10.2-2.5-11.3s-2.5-1.8-5.5-2.1V4H269.5z"
		/>
	<path class="st1" d="M294.6,54.4c0.2-0.9,0.5-2.1,0.9-3.5l5.4-19.8c0.1-0.2,0.1-0.5,0.2-0.7c0-0.2,0.1-0.4,0.1-0.6
		c0-1.2-0.4-1.9-1.1-2.2c-0.7-0.3-2.1-0.5-4.1-0.6v-2.3c1.6-0.1,4-0.4,7.2-0.7c3.1-0.4,5.3-0.7,6.6-0.9l3.7-0.7l-6.8,25.1
		c-0.6,2.1-1,3.6-1.2,4.5c-0.5,2.1-0.8,3.5-0.8,4.1s0.1,1,0.4,1.2s0.6,0.3,0.9,0.3c0.9,0,2-0.8,3.3-2.3s2.5-3.1,3.5-4.8l1.9,1.2
		c-2.9,4.2-5,7-6.6,8.5c-2.5,2.4-5.1,3.6-8,3.6c-1.6,0-3-0.5-4.3-1.5s-1.9-2.5-1.9-4.5C294.1,57,294.3,55.9,294.6,54.4z M315.2,4.4
		c1.1,1.1,1.7,2.5,1.7,4.2s-0.6,3-1.7,4.2s-2.5,1.7-4.1,1.7s-3-0.6-4.2-1.7s-1.7-2.6-1.7-4.2s0.6-3,1.7-4.2c1.2-1.1,2.5-1.7,4.2-1.7
		S314.1,3.2,315.2,4.4z"/>
	<path class="st1" d="M343.8,23.2c0.7,0.4,1.4,1,2.2,1.8l3.9-14.5c0.1-0.3,0.1-0.6,0.2-0.9c0-0.3,0-0.6,0-0.8c0-1-0.3-1.7-0.9-2.1
		s-1.5-0.6-2.7-0.6h-1.8V3.9l3.8-0.3c2.9-0.3,5.2-0.5,6.8-0.8s4.2-0.7,7.8-1.4L353.3,37c-0.8,2.8-1.8,6.6-3.1,11.5s-1.9,7.5-1.9,8
		c0,0.4,0.1,0.7,0.3,0.9s0.5,0.3,0.8,0.3c0.7,0,1.6-0.7,2.7-2.1c1.2-1.4,2.2-2.8,3-4.2l1.9,1.4c-2.3,3.4-4.2,5.9-5.7,7.3
		c-2.5,2.6-5,3.9-7.4,3.9c-1.3,0-2.3-0.3-3.2-0.9c-1.4-0.9-2.1-2.5-2.1-4.8c0-0.4,0.1-1,0.2-2s0.4-2.1,0.7-3.5
		c-2.1,3.4-3.9,5.9-5.5,7.4c-2.7,2.6-5.6,3.9-8.9,3.9c-2.6,0-4.8-1-6.6-3s-2.8-5-2.8-9c0-6.3,2.6-12.8,7.8-19.6
		c5.3-6.9,10.6-10.4,15.9-10.4C341.2,22.2,342.6,22.6,343.8,23.2z M327.8,56.2c0.7,1,1.6,1.4,2.7,1.4c3.4,0,6.8-4.1,10-12.2
		c2.7-6.8,4.1-11.8,4.1-15c0-1.1-0.1-2-0.4-2.7c-0.5-1.3-1.5-1.9-3-1.9c-3.2,0-6.5,3.6-9.9,10.9c-3,6.5-4.5,11.7-4.5,15.7
		C326.8,54,327.1,55.3,327.8,56.2z"/>
	<path class="st1" d="M367.8,31.5c5.2-6.2,11-9.3,17.3-9.3c2.7,0,5,0.7,6.7,2c1.8,1.3,2.7,3.2,2.7,5.7c0,3.7-2.1,7.2-6.2,10.6
		c-4.2,3.3-9.6,5.4-16.2,6.3c-0.2,0.9-0.3,1.7-0.4,2.5s-0.1,1.4-0.1,1.9c0,1.8,0.3,3.2,0.8,4.3c0.9,1.9,2.7,2.9,5.3,2.9
		c2.1,0,4.2-1.1,6.3-3.3c1.1-1.1,2.3-2.7,3.6-4.8l2.6,1.5c-2.2,3.7-4.3,6.4-6.2,8.1c-3.1,2.8-6.7,4.1-10.8,4.1c-3.1,0-6-1.1-8.7-3.4
		c-2.7-2.2-4.1-5.7-4.1-10.3C360.2,43.8,362.7,37.5,367.8,31.5z M386,26.2c-0.4-0.7-1-1.1-2-1.1c-2.1,0-4.1,1.7-6.1,5
		s-3.7,8-5.3,13.9c5-1.1,8.6-3.3,10.7-6.6s3.2-6.2,3.2-8.7C386.5,27.7,386.4,26.9,386,26.2z"/>
	<path class="st1" d="M431,24.3c4.1,2.3,6.2,6.3,6.2,12c0,6.2-2.4,12.3-7.1,18.2c-5.2,6.4-11.1,9.6-17.7,9.6c-3.4,0-6.6-1.1-9.6-3.2
		s-4.6-5.7-4.6-10.7c0-6.3,2.4-12.3,7.1-18.2c5.2-6.4,11.1-9.6,17.8-9.6C426,22.3,428.7,23,431,24.3z M409.2,58.9
		c0.7,1.6,2.1,2.4,4,2.4c3.6,0,6.9-4.2,9.8-12.6c2.4-7.1,3.6-13.2,3.6-18.3c0-1.4-0.2-2.4-0.5-3.2c-0.7-1.4-1.9-2.1-3.7-2.1
		c-4.2,0-7.7,4.5-10.6,13.4c-2.2,6.8-3.3,12.4-3.3,16.9C408.6,56.8,408.8,58,409.2,58.9z"/>
</g>
<path class="st2" d="M142.1,20.5c-3.4,0-6.7,0.9-9.6,2.5c0-8.6,0.1-16.1,0.3-19l-17.7,3.4V9l1.7,0.2c2.5,0.3,3.4,1.8,3.7,5.1
	c0.5,6.4,0.5,40.3,0,45.7c5,1.2,10,1.8,15.1,1.9c14.1,0,22.6-8.7,22.6-22.5C158.2,28.4,151.3,20.5,142.1,20.5z M136,59.1
	c-1,0-2-0.1-3-0.3c-0.3-3.8-0.5-19.5-0.4-33.3c1.3-0.5,2.7-0.7,4.1-0.7c5.8,0,9.1,6.8,9.1,15.2C145.7,50.9,141.7,59.1,136,59.1
	L136,59.1z M48.4,20.9l-2.7,0.7C43.2,13.6,39.4,9,32.2,9H23c-0.4,5.2-0.6,13.7-0.5,22.6l6.2-0.2c4.1-0.1,5.8-3.2,6.8-7.7h2.3v18.9
	h-2.3c-1-4.6-2.7-7.6-6.9-7.8l-6.2-0.2c0.1,6.8,0.3,12.5,0.5,15.9c0.4,5,1.8,7.2,5.4,7.8l3.1,0.3v2.3H1.5v-2.3L4,58.3
	c3.5-0.5,5-2.7,5.4-7.8c0.7-8.3,0.8-25.5,0-35.1C9,10.4,7.6,8.2,4,7.7L1.5,7.4V5.2h46.7L48.4,20.9z M63.3,20
	c13.3,0,19.8,9,19.8,20.9s-7.4,21-20.7,21s-19.9-9-19.9-20.8C42.6,29.2,50,20,63.3,20z M62.7,22.6c-5.9,0-7.5,7.9-7.5,18.4
	s2.6,18.4,8,18.4s7.5-7.9,7.5-18.4S68,22.6,62.7,22.6L62.7,22.6z M161.5,41.4c0-11,6.9-21.3,20.6-21.3c11.1,0,16.4,8.2,16.5,19
	h-24.8c-0.3,9.8,4.7,17,14.2,17c4.1,0,6.4-1,9-2.9l1.1,1.4c-2.7,3.8-8.5,7.4-16.1,7.4C169.9,61.9,161.5,53.5,161.5,41.4z
	 M173.8,36.3l12.4-0.3c0.1-5.5-0.8-13.4-5.3-13.4C176.5,22.7,173.9,30.1,173.8,36.3L173.8,36.3z M230.4,32.4l-2,0.5
	c-2.1-7-5.4-10-10.2-10c-3.2,0-5.5,2.4-5.5,5.9s2.6,5.3,10.1,8.2s9.6,5.8,9.6,11.4c0,8.4-6.4,13.5-17,13.5c-4.8,0-9.5-0.9-14-2.5
	l-0.3-11.6l2-0.5c2.9,8.1,6.7,11,11.7,11s6.6-3,6.6-6.2s-1.8-5-8.6-7.4s-10.8-5-10.8-12S208,20,218,20c4.6,0,9,0.8,12,2.1
	L230.4,32.4z M113.4,32.1c-5.4-3.6-11.2-2-12.3-0.1c-0.4,7.1-0.3,14.3,0.1,21.4c0.3,3.3,1.3,4.8,3.7,5.1l3.2,0.2V61H83.5v-2.3
	l1.7-0.2c2.5-0.3,3.4-1.8,3.7-5.1c0.5-7.7,0.5-15.4,0-23.1c-0.3-3.3-1.3-4.8-3.7-5.1L83.5,25v-1.6l17.7-3.4l-0.2,9.2
	c4.1-9.5,12.3-10.8,16.7-8.1L113.4,32.1z"/>
</svg>
