<?xml version="1.0" encoding="utf-8"?>
<!-- Generator: Adobe Illustrator 21.0.0, SVG Export Plug-In . SVG Version: 6.00 Build 0)  -->
<svg version="1.0" id="Layer_1" xmlns="http://www.w3.org/2000/svg" xmlns:xlink="http://www.w3.org/1999/xlink" x="0px" y="0px"
	 viewBox="0 0 10 17" style="enable-background:new 0 0 10 17;" xml:space="preserve">
<style type="text/css">
	.st0{fill:#FFFFFF;}
</style>
<g>
	<path class="st0" d="M8.5,7.7L2.1,1.3c-0.4-0.4-1-0.4-1.3,0c-0.4,0.4-0.4,1,0,1.3l5.9,5.9l0.7-0.7C7.7,7.5,8.2,7.5,8.5,7.7z"/>
	<path class="st0" d="M8.5,7.7l0.2,0.2C8.9,8,9,8.3,9,8.5"/>
	<path class="st0" d="M7.4,9.2L6.7,8.5l-5.9,5.9c-0.4,0.4-0.4,1,0,1.3c0.4,0.4,1,0.4,1.3,0l6.4-6.4C8.2,9.5,7.7,9.5,7.4,9.2z"/>
	<path class="st0" d="M9,8.5C9,8.3,8.9,8,8.7,7.9L8.5,7.7C8.2,7.5,7.7,7.5,7.4,7.8L6.7,8.5l0.7,0.7c0.3,0.3,0.8,0.3,1.1,0.1l0.2-0.2
		C8.9,9,9,8.7,9,8.5z"/>
</g>
</svg>
