<?xml version="1.0" encoding="utf-8"?>
<!-- Generator: Adobe Illustrator 21.0.0, SVG Export Plug-In . SVG Version: 6.00 Build 0)  -->
<svg version="1.0" id="svg2985" xmlns="http://www.w3.org/2000/svg" xmlns:xlink="http://www.w3.org/1999/xlink" x="0px" y="0px"
	 viewBox="0 0 389 82" style="enable-background:new 0 0 389 82;" xml:space="preserve">
<style type="text/css">
	.st0{enable-background:new    ;}
	.st1{fill:#FE0000;}
	.st2{fill:#FFFFFF;}
</style>
<g class="st0">
	<path class="st1" d="M237.1,60.6c2.1-0.3,3.6-0.8,4.6-1.5c1-0.8,1.8-2.4,2.5-4.8l10.8-39.5c0.3-1.1,0.5-2.1,0.7-2.8s0.2-1.4,0.2-2
		c0-1.5-0.4-2.4-1.2-2.8c-0.8-0.4-2.6-0.7-5.2-0.9V4h27.8v2.3c-3.1,0.3-5.1,0.8-6.2,1.4c-1.1,0.6-1.9,2.3-2.7,4.9l-11.4,42
		c-0.1,0.5-0.2,0.9-0.3,1.3c-0.1,0.4-0.1,0.9-0.1,1.4c0,1,0.4,1.7,1.3,2.1c0.9,0.4,2.1,0.6,3.6,0.6c6,0,11.2-1,15.6-3.1
		c4.4-2.1,8.2-5.9,11.6-11.6l2.1,0.4l-5.1,17.1h-48.5V60.6z"/>
	<path class="st1" d="M294.5,54.4c0.2-0.9,0.5-2.1,0.9-3.5l5.4-19.8c0.1-0.2,0.1-0.5,0.1-0.7c0-0.2,0.1-0.4,0.1-0.6
		c0-1.2-0.4-1.9-1.1-2.2c-0.7-0.3-2.1-0.5-4.1-0.6v-2.3c1.6-0.1,4-0.4,7.2-0.7c3.1-0.4,5.3-0.7,6.6-0.9l3.7-0.7l-6.8,25.1
		c-0.6,2.1-1,3.6-1.2,4.5c-0.5,2.1-0.8,3.5-0.8,4.1s0.1,1,0.4,1.2c0.3,0.2,0.6,0.3,0.9,0.3c0.9,0,2-0.8,3.3-2.3
		c1.3-1.5,2.5-3.1,3.5-4.8l1.9,1.2c-2.9,4.2-5,7-6.6,8.5c-2.5,2.4-5.1,3.6-8,3.6c-1.6,0-3-0.5-4.3-1.5s-1.9-2.5-1.9-4.5
		C294,57,294.1,55.9,294.5,54.4z M315.1,4.4c1.1,1.1,1.7,2.5,1.7,4.2s-0.6,3-1.7,4.2s-2.5,1.7-4.1,1.7s-3-0.6-4.2-1.7
		c-1.2-1.2-1.7-2.6-1.7-4.2s0.6-3,1.7-4.2c1.2-1.1,2.5-1.7,4.2-1.7S313.9,3.2,315.1,4.4z"/>
	<path class="st1" d="M304.1,78.9c-1.6-1.4-2.3-3-2.3-5c0-1.4,0.5-2.5,1.4-3.4c0.9-0.9,2-1.3,3.1-1.3c1.1,0,2.2,0.4,3.1,1.2
		c0.9,0.8,1.3,1.9,1.3,3.2c0,0.7-0.2,1.4-0.7,2.1s-0.7,1.2-0.7,1.4c0,0.3,0.1,0.6,0.4,0.7s0.7,0.3,1.1,0.3c2.2,0,3.9-1.8,5-5.3
		c1.1-3.5,3.5-13.7,7.1-30.7l3.6-15.3h-6.4l0.8-3.6h6.5c0.5-2.2,1.6-5.1,3.3-8.9s3.8-6.8,6.4-9c3.1-2.7,6.4-4.1,9.7-4.1
		c2.6,0,4.8,0.6,6.5,1.8c1.7,1.2,2.5,3,2.5,5.4c0,1.4-0.4,2.5-1.3,3.4c-0.9,0.8-1.9,1.3-3.1,1.3c-1.2,0-2.2-0.4-3-1.2
		s-1.3-1.8-1.3-2.9c0-0.8,0.2-1.6,0.7-2.4c0.5-0.8,0.7-1.3,0.7-1.4c0-0.2-0.1-0.5-0.3-0.8C348,4.1,347.6,4,347,4
		c-1.6,0-3,1.1-4.3,3.3c-1.3,2.2-2.5,5.5-3.6,9.8l-1.6,6.2h8.1l-0.8,3.6h-7.9c-4.2,20.6-7.6,34.1-10.3,40.5c-3.8,9-9.2,13.5-16,13.5
		C307.8,81,305.7,80.3,304.1,78.9z"/>
	<path class="st1" d="M353.1,31.5c5.2-6.2,11-9.3,17.3-9.3c2.7,0,5,0.7,6.7,2s2.7,3.2,2.7,5.7c0,3.7-2.1,7.2-6.2,10.6
		c-4.2,3.3-9.6,5.4-16.2,6.3c-0.2,0.9-0.3,1.7-0.4,2.5s-0.1,1.4-0.1,1.9c0,1.8,0.3,3.2,0.8,4.3c0.9,1.9,2.7,2.9,5.3,2.9
		c2.1,0,4.2-1.1,6.3-3.3c1.1-1.1,2.3-2.7,3.6-4.8l2.6,1.5c-2.2,3.7-4.3,6.4-6.2,8.1c-3.1,2.8-6.7,4.1-10.8,4.1c-3.1,0-6-1.1-8.7-3.4
		c-2.7-2.2-4.1-5.7-4.1-10.3C345.4,43.8,348,37.5,353.1,31.5z M371.2,26.2c-0.4-0.7-1-1.1-2-1.1c-2.1,0-4.1,1.7-6.1,5
		c-2,3.3-3.7,8-5.3,13.9c5-1.1,8.6-3.3,10.7-6.6c2.1-3.3,3.2-6.2,3.2-8.7C371.8,27.7,371.6,26.9,371.2,26.2z"/>
</g>
<path class="st2" d="M142.1,20.5c-3.4,0-6.7,0.9-9.6,2.5c0-8.6,0.1-16.1,0.3-19l-17.7,3.4V9l1.7,0.2c2.5,0.3,3.4,1.8,3.7,5.1
	c0.5,6.4,0.5,40.3,0,45.7c5,1.2,10,1.8,15.1,1.9c14.1,0,22.6-8.7,22.6-22.5C158.2,28.4,151.3,20.5,142.1,20.5z M136,59.1
	c-1,0-2-0.1-3-0.3c-0.3-3.8-0.5-19.5-0.4-33.3c1.3-0.5,2.7-0.7,4.1-0.7c5.8,0,9.1,6.8,9.1,15.2C145.7,50.9,141.7,59.1,136,59.1
	L136,59.1z M48.4,20.9l-2.7,0.7C43.2,13.6,39.4,9,32.2,9H23c-0.4,5.2-0.6,13.7-0.5,22.6l6.2-0.2c4.1-0.1,5.8-3.2,6.8-7.7h2.3v18.9
	h-2.3c-1-4.6-2.7-7.6-6.9-7.8l-6.2-0.2c0.1,6.8,0.3,12.5,0.5,15.9c0.4,5,1.8,7.2,5.4,7.8l3.1,0.3v2.3H1.5v-2.3L4,58.3
	c3.5-0.5,5-2.7,5.4-7.8c0.7-8.3,0.8-25.5,0-35.1C9,10.4,7.6,8.2,4,7.7L1.5,7.4V5.2h46.7L48.4,20.9z M63.3,20
	c13.3,0,19.8,9,19.8,20.9s-7.4,21-20.7,21s-19.9-9-19.9-20.8C42.6,29.2,50,20,63.3,20z M62.7,22.6c-5.9,0-7.5,7.9-7.5,18.4
	s2.6,18.4,8,18.4s7.5-7.9,7.5-18.4S68,22.6,62.7,22.6L62.7,22.6z M161.5,41.4c0-11,6.9-21.3,20.6-21.3c11.1,0,16.4,8.2,16.5,19
	h-24.8c-0.3,9.8,4.7,17,14.2,17c4.1,0,6.4-1,9-2.9l1.1,1.4c-2.7,3.8-8.5,7.4-16.1,7.4C169.9,61.9,161.5,53.5,161.5,41.4z
	 M173.8,36.3l12.4-0.3c0.1-5.5-0.8-13.4-5.3-13.4C176.5,22.7,173.9,30.1,173.8,36.3L173.8,36.3z M230.4,32.4l-2,0.5
	c-2.1-7-5.4-10-10.2-10c-3.2,0-5.5,2.4-5.5,5.9s2.6,5.3,10.1,8.2s9.6,5.8,9.6,11.4c0,8.4-6.4,13.5-17,13.5c-4.8,0-9.5-0.9-14-2.5
	l-0.3-11.6l2-0.5c2.9,8.1,6.7,11,11.7,11s6.6-3,6.6-6.2s-1.8-5-8.6-7.4s-10.8-5-10.8-12S208,20,218,20c4.6,0,9,0.8,12,2.1
	L230.4,32.4z M113.4,32.1c-5.4-3.6-11.2-2-12.3-0.1c-0.4,7.1-0.3,14.3,0.1,21.4c0.3,3.3,1.3,4.8,3.7,5.1l3.2,0.2V61H83.5v-2.3
	l1.7-0.2c2.5-0.3,3.4-1.8,3.7-5.1c0.5-7.7,0.5-15.4,0-23.1c-0.3-3.3-1.3-4.8-3.7-5.1L83.5,25v-1.6l17.7-3.4l-0.2,9.2
	c4.1-9.5,12.3-10.8,16.7-8.1L113.4,32.1z"/>
</svg>
