<?xml version="1.0" encoding="utf-8"?>
<!-- Generator: Adobe Illustrator 21.0.0, SVG Export Plug-In . SVG Version: 6.00 Build 0)  -->
<svg version="1.1" id="svg2985" xmlns="http://www.w3.org/2000/svg" xmlns:xlink="http://www.w3.org/1999/xlink" x="0px" y="0px"
	 viewBox="0 0 385 64" style="enable-background:new 0 0 385 64;" xml:space="preserve">
<style type="text/css">
	.st0{fill:#FE0000;}
</style>
<g>
	<path class="st0" d="M48.1,44.5c0,2.2-0.5,4.3-1.4,6.2c-0.9,1.8-2.1,3.3-3.8,4.5c-1.7,1.3-3.6,2.2-5.5,2.8c-2,0.6-4.3,0.9-6.8,0.9
		H4.5V3.2h29c1.9,0,3.6,0.4,5.1,1.3c1.8,1.1,3.1,2.1,3.9,3.2c1.2,1.4,2,2.9,2.5,4.5c0.6,1.7,0.9,3.5,0.9,5.2c0,2.9-0.6,5.5-1.9,7.7
		c-1.4,2.3-3.3,4.1-5.8,5.2c3.1,0.9,5.5,2.6,7.2,5.1C47.1,38,48.1,41,48.1,44.5z M15.1,12.5v14h14c1.7,0,3.2-0.6,4.5-1.9
		c1.3-1.4,1.9-3.2,1.9-5.2c0-2.1-0.6-3.8-1.7-5.1c-1.2-1.3-2.6-1.9-4.3-1.9L15.1,12.5L15.1,12.5z M37.5,42.5c0-0.8-0.2-1.7-0.6-2.9
		c-0.4-1.1-0.8-1.8-1.3-2.3c-0.5-0.6-1.1-1.1-1.9-1.6c-0.7-0.4-1.5-0.6-2.6-0.6H15v14.6h15.6c0.7,0,1.6-0.2,2.8-0.6
		c0.6-0.2,1.3-0.7,2-1.4s1.2-1.4,1.4-2.3C37.3,44.2,37.5,43.2,37.5,42.5z M77,27.3c-2.8,0-5.6,0.6-8.3,1.9c-2.3,1.1-4.1,2.8-5.2,5.2
		v24.5H53.2v-41h9.4V27c1.4-2.7,3.2-4.9,5.4-6.7c2.2-1.7,4.5-2.6,6.9-2.6h1.3c0.1,0,0.2,0,0.4,0.1c0.2,0,0.3,0.1,0.4,0.1L77,27.3z
		 M91.2,59.1c-1.8,0-3.6-0.3-5.4-0.9c-1.7-0.6-3.2-1.4-4.3-2.6s-2.1-2.5-2.9-4.1c-0.7-1.4-1-3-1-5.1c0-1.8,0.4-3.6,1.3-5.2
		c0.9-1.5,2-2.9,3.5-4.1c1.4-1.2,3.1-2,5.4-2.6c2-0.6,4.3-0.9,6.8-0.9c1.7,0,3.5,0.1,5.2,0.4c1.8,0.3,3.4,0.7,4.6,1.3V33
		c0-2.5-0.8-4.5-2.3-6.1c-1.4-1.4-3.7-2.2-6.7-2.2c-2,0-4.1,0.4-6.2,1.2c-1.4,0.5-3.5,1.6-6.2,3.5l-3.2-6.7
		c4.9-3.4,10.5-5.1,16.7-5.1c5.9,0,10.4,1.4,13.5,4.2s4.6,6.9,4.6,12.2v12.5c0,1.1,0.2,1.8,0.7,2.3s1.2,0.7,2.2,0.7v8.7
		c-0.2,0-0.6,0.1-1.3,0.2c-0.7,0.1-1.2,0.2-1.4,0.2h-2.2c-1.9,0-3.4-0.4-4.3-1.3c-1.1-1-1.7-2.1-2-3.3l-0.1-2.3
		c-1.8,2.5-4,4.3-6.5,5.4C96.9,58.5,94.2,59.1,91.2,59.1z M94.1,51.7c1.4,0,3.1-0.3,4.9-1c1.5-0.6,2.8-1.4,3.6-2.3
		c1.2-0.9,1.7-1.8,1.7-2.9v-4.6c-1.4-0.5-2.7-0.9-4.1-1.2c-1-0.2-2.3-0.3-4.1-0.3c-2.6,0-4.8,0.6-6.5,1.7c-1.6,1.1-2.5,2.6-2.5,4.5
		c0,1.7,0.7,3.2,2,4.3C90.7,51.1,92.3,51.7,94.1,51.7z M159.4,58.8h-10.1V36.1c0-3.3-0.6-5.6-1.7-7.1c-1.3-1.5-2.8-2.3-4.6-2.3
		c-0.9,0-1.9,0.2-3,0.7c-1.4,0.6-2.4,1.2-3,1.7c-1.3,1.1-2.1,1.9-2.6,2.6c-0.8,1.2-1.3,2.3-1.6,3.5v23.6h-10.3V17.7h9.3v8.1
		c1.4-2.4,3.4-4.3,6.1-5.8c2.6-1.4,5.8-2,9.6-2c2.5,0,4.5,0.4,6.1,1.3c1.4,0.8,2.7,2,3.6,3.6c1.2,1.9,1.8,3.6,2,4.9
		c0.4,2.5,0.6,4.4,0.6,5.8v25.2H159.4z M182.9,58.8c-2.8,0-5.4-0.6-7.7-1.7c-2.6-1.2-4.6-2.5-5.9-3.9c-1.5-1.6-2.8-3.9-3.9-6.7
		c-1-2.7-1.4-5.4-1.4-8.1c0-2.9,0.4-5.5,1.3-8s2.1-4.7,3.8-6.7c1.5-1.9,3.4-3.4,5.6-4.3c2.3-1.1,4.7-1.6,7.1-1.6c3,0,5.6,0.7,8,2.2
		c2.5,1.5,4.3,3.4,5.5,5.5V3.2h10.1v43.4c0,1.1,0.2,1.8,0.7,2.3s1.2,0.7,2,0.7l-0.1,8.5c-2.5,0.4-4.2,0.6-4.9,0.6
		c-1.8,0-3.3-0.4-4.3-1.3c-1.1-1-1.7-2.1-2-3.3v-2.6c-1.1,1.9-3,3.7-5.9,5.2C188.2,58.1,185.6,58.8,182.9,58.8z M185.5,50.6
		c0.6,0,1.5-0.2,2.9-0.6c1.1-0.3,2-0.7,2.9-1.3c0.8-0.5,1.5-1.2,2.3-2.2s1.4-1.9,1.7-2.8v-9.4c-0.9-2.3-2.3-4.2-4.3-5.6
		s-4.1-2.2-6.1-2.2c-1.3,0-2.7,0.3-4.2,1c-1.3,0.6-2.4,1.5-3.3,2.8c-0.9,1.2-1.6,2.5-2.2,3.9c-0.5,1.2-0.7,2.7-0.7,4.6
		c0,1.6,0.3,3.2,0.9,4.6c0.6,1.4,1.4,2.7,2.3,3.6c1.1,1.1,2.2,1.9,3.5,2.5C182.9,50.2,184.3,50.6,185.5,50.6z M252.6,3.2h10
		L229.9,59h-7.4L212.4,3.2h9.4l6.8,41.7L252.6,3.2z M287,28.4c0.6,1.7,1,3.9,1.2,6.5c0,3.1-0.7,6.1-2,9.1c-1.3,2.8-3,5.3-5.2,7.5
		c-2.3,2.3-4.9,4.1-7.7,5.4c-3,1.4-6.1,2-9.4,2c-2.3,0-4.6-0.5-6.8-1.4c-1.9-0.9-3.6-2.1-5.1-3.6c-1.2-1.4-2.2-3.2-3-5.5
		c-0.8-2.1-1.2-4.2-1.2-6.4c0-3.2,0.7-6.3,2-9.3c1.2-2.6,2.9-5.1,5.4-7.5c2.3-2.3,4.9-4.1,7.7-5.4c3-1.4,6.1-2,9.3-2
		c2.4,0,4.6,0.4,6.7,1.3c1.9,0.9,3.6,2.1,5.1,3.8C285,24.2,286.1,26,287,28.4z M257.4,45.2c0.5,1.2,1,2.1,1.6,2.9
		c0.6,0.8,1.4,1.4,2.5,1.9c2.2,1.1,5,0.9,8.3-0.6c2-1,3.6-2.1,4.6-3.3c1.4-1.6,2.6-3.3,3.3-4.9c0.8-1.5,1.2-3.5,1.2-5.8
		c0-1.4-0.2-2.7-0.6-3.8c-0.3-1.1-0.8-2.1-1.6-3c-0.7-0.8-1.5-1.4-2.6-1.9c-1-0.5-2-0.7-3-0.7c-1.8,0-3.5,0.4-5.1,1.3
		c-1.7,0.9-3.3,2-4.6,3.3c-1.4,1.4-2.5,3-3.3,4.9c-0.8,1.6-1.2,3.6-1.2,5.8C256.8,42.8,257,44.1,257.4,45.2z M295.6,17.8h9.1
		l-9.1,41.3h-9.1L295.6,17.8z M298.5,4.8h9.1l-2,9.4h-9.1L298.5,4.8z M330.4,45.6l0.7-1.4l8.7,2.6l-1.3,2.3
		c-0.8,1.4-1.9,2.7-3.3,3.9c-1.5,1.4-3,2.5-4.3,3.2c-1.6,0.9-3.4,1.5-5.2,2c-1.6,0.4-3.5,0.6-5.6,0.6c-2.5,0-4.8-0.4-6.8-1.3
		c-1.8-0.8-3.5-2-5.1-3.8c-1.4-1.4-2.4-3.3-3.2-5.5c-0.8-2.1-1.2-4.3-1.2-6.5c0-3.2,0.7-6.3,2-9.3c1.3-2.8,3-5.3,5.2-7.5
		c2.3-2.3,4.9-4.1,7.7-5.4s6-1.9,9.6-1.9c3.8,0,6.9,0.9,9.6,2.6c2.3,1.7,4,4.2,4.9,7.4l0.6,2l-8.8,2.5l-0.6-1.9
		c-0.4-1.4-1.2-2.5-2.3-3.2c-1.3-0.8-2.7-1.2-4.3-1.2c-1.9,0-3.7,0.4-5.2,1.2c-1.8,0.9-3.3,2-4.5,3.3c-1.4,1.4-2.5,3-3.3,4.9
		c-0.8,1.6-1.2,3.6-1.2,5.8c0,1.5,0.2,2.8,0.6,3.9c0.3,1.1,0.8,2.1,1.6,3c0.6,0.8,1.4,1.4,2.5,1.9c1.6,0.8,3.6,0.9,5.9,0.3
		c0.9-0.3,1.8-0.7,2.9-1.2c0.5-0.3,1.3-0.9,2.5-1.7C329.7,46.6,330.2,46,330.4,45.6z M359.2,59c-2.6,0-4.9-0.4-6.9-1.3
		c-1.9-0.9-3.7-2.1-5.2-3.8c-1.4-1.4-2.4-3.3-3.2-5.5c-0.8-2.1-1.2-4.3-1.2-6.7c0-3.2,0.6-6.2,1.9-9c1.1-2.7,2.8-5.3,5.2-7.7
		c2.3-2.3,4.9-4.1,7.7-5.4c3.2-1.4,6.5-2,9.8-2c1.5,0,3.3,0.2,5.2,0.7c1.3,0.3,2.8,1,4.5,2.2c1.3,1,2.3,2.2,3,3.8
		c0.8,1.5,1.2,3.2,1.2,5.1c0,4.2-2,7.5-5.9,9.7c-3.6,2-8.9,3-16.1,3c-0.4,0-1.1,0-2-0.1c-1,0-1.7-0.1-2.3-0.1h-3
		c0,0.8,0.2,1.9,0.6,3.5c0.3,1.1,0.8,2.1,1.6,3c0.7,0.8,1.5,1.4,2.5,2c1.8,1,4,1.1,6.5,0.3c1.2-0.3,2.2-0.7,3-1.2
		c0.8-0.4,1.6-1,2.5-1.9c1-1,1.6-1.7,2-2.3l0.7-1.3l8.3,2.5l-1.6,2.3c-0.9,1.4-2,2.7-3.5,4.1c-1.9,1.5-3.4,2.6-4.5,3.2
		c-1.6,0.9-3.4,1.5-5.2,2C362.6,58.7,360.7,59,359.2,59z M353.4,34.5h1.9c4.8,0.3,8.4,0.2,10.9-0.3c1.8-0.3,3.2-0.7,4.2-1.3
		c0.9-0.4,1.4-0.9,1.7-1.6c0.3-0.6,0.4-1.2,0.4-1.9c0-1.2-0.4-2.1-1.3-2.8c-1.1-0.7-2.6-1-4.5-1s-3.6,0.3-5.1,0.9
		c-1.4,0.5-2.8,1.4-4.2,2.6c-1,0.9-2,2.1-3,3.6c-0.1,0.2-0.3,0.5-0.5,0.9C353.7,34,353.5,34.3,353.4,34.5z"/>
</g>
</svg>
