<?xml version="1.0" encoding="utf-8"?>
<!-- Generator: Adobe Illustrator 21.0.0, SVG Export Plug-In . SVG Version: 6.00 Build 0)  -->
<svg version="1.1" id="Layer_1" xmlns="http://www.w3.org/2000/svg" xmlns:xlink="http://www.w3.org/1999/xlink" x="0px" y="0px"
	 width="26px" height="26px" viewBox="0 0 26 26" style="enable-background:new 0 0 26 26;" xml:space="preserve">
<style type="text/css">
	.st0{fill:#5B89B0;}
	.st1{fill:#FFFFFF;}
</style>
<circle class="st0" cx="13" cy="13" r="13"/>
<g>
	<path class="st1" d="M20.9,17.9c0-0.1,0-0.1-0.1-0.1c-0.3-0.6-0.9-1.3-1.7-2.2l0,0l0,0l0,0h0c-0.4-0.4-0.6-0.7-0.7-0.8
		c-0.2-0.3-0.2-0.5-0.1-0.8c0.1-0.2,0.3-0.6,0.8-1.3c0.2-0.4,0.4-0.6,0.6-0.9c1-1.5,1.5-2.5,1.3-3l-0.1-0.1c0-0.1-0.1-0.1-0.3-0.2
		c-0.1-0.1-0.3-0.1-0.6,0l-2.5,0c0,0-0.1,0-0.2,0c-0.1,0-0.1,0-0.1,0l0,0l0,0c0,0-0.1,0.1-0.1,0.1C17,8.8,17,8.8,17,8.9
		c-0.3,0.8-0.6,1.6-0.9,2.3c-0.2,0.4-0.4,0.8-0.6,1.1c-0.2,0.3-0.3,0.5-0.5,0.7c-0.1,0.1-0.2,0.3-0.3,0.3c-0.1,0.1-0.2,0.1-0.2,0.1
		c-0.1,0-0.1,0-0.2,0c-0.1-0.1-0.1-0.1-0.2-0.2C14,13,14,12.8,13.9,12.7c0-0.2,0-0.3,0-0.4c0-0.1,0-0.3,0-0.5c0-0.2,0-0.3,0-0.4
		c0-0.3,0-0.5,0-0.8c0-0.3,0-0.5,0-0.7c0-0.2,0-0.4,0-0.6c0-0.2,0-0.3,0-0.5c0-0.1-0.1-0.2-0.1-0.3c0-0.1-0.1-0.2-0.2-0.2
		c-0.1-0.1-0.2-0.1-0.3-0.1C13.1,8.1,12.7,8,12.2,8c-1.1,0-1.8,0.1-2.1,0.2C9.9,8.3,9.8,8.4,9.7,8.5c-0.1,0.1-0.1,0.2,0,0.2
		C10,8.8,10.3,9,10.4,9.2l0.1,0.1c0,0.1,0.1,0.2,0.1,0.5c0,0.2,0.1,0.5,0.1,0.7c0,0.5,0,0.9,0,1.3c0,0.3-0.1,0.6-0.1,0.8
		c0,0.2-0.1,0.4-0.1,0.5c-0.1,0.1-0.1,0.2-0.1,0.2c0,0,0,0,0,0.1c-0.1,0-0.2,0.1-0.2,0.1c-0.1,0-0.2,0-0.3-0.1
		c-0.1-0.1-0.2-0.2-0.4-0.4c-0.1-0.2-0.3-0.4-0.4-0.7c-0.2-0.3-0.3-0.6-0.5-1l-0.1-0.3C8.3,10.7,8.2,10.4,8,10
		C7.8,9.7,7.7,9.3,7.6,9c0-0.1-0.1-0.2-0.2-0.3l0,0c0,0-0.1-0.1-0.1-0.1C7.1,8.5,7.1,8.5,7,8.5l-2.4,0c-0.2,0-0.4,0.1-0.5,0.2l0,0.1
		c0,0,0,0.1,0,0.2C4,9,4,9.1,4.1,9.2c0.4,0.9,0.7,1.9,1.2,2.7C5.6,12.8,6,13.5,6.3,14c0.3,0.5,0.6,1,0.9,1.5
		c0.3,0.5,0.5,0.8,0.6,0.9C8,16.6,8,16.7,8.1,16.8L8.3,17c0.1,0.2,0.3,0.4,0.6,0.6c0.3,0.2,0.6,0.4,0.9,0.7c0.3,0.2,0.7,0.4,1.2,0.5
		c0.4,0.1,0.9,0.2,1.3,0.2h1c0.2,0,0.4-0.1,0.5-0.2l0-0.1c0,0,0-0.1,0.1-0.2c0-0.1,0-0.2,0-0.3c0-0.3,0-0.5,0.1-0.8
		c0-0.2,0.1-0.4,0.2-0.5c0.1-0.1,0.1-0.2,0.2-0.3c0.1-0.1,0.1-0.1,0.2-0.1c0,0,0.1,0,0.1,0c0.1-0.1,0.3,0,0.5,0.2
		c0.2,0.2,0.4,0.4,0.5,0.6c0.2,0.2,0.4,0.5,0.6,0.8c0.2,0.3,0.4,0.5,0.6,0.6l0.2,0.1c0.1,0.1,0.3,0.2,0.5,0.2C17.7,19,17.8,19,18,19
		l2.3,0c0.2,0,0.4,0,0.5-0.1c0.1-0.1,0.2-0.2,0.2-0.3c0-0.1,0-0.2,0-0.3C21,18.1,20.9,18,20.9,17.9z"/>
</g>
</svg>
