<?xml version="1.0" encoding="utf-8"?>
<!-- Generator: Adobe Illustrator 21.0.0, SVG Export Plug-In . SVG Version: 6.00 Build 0)  -->
<svg version="1.0" id="Layer_1" xmlns="http://www.w3.org/2000/svg" xmlns:xlink="http://www.w3.org/1999/xlink" x="0px" y="0px"
	 viewBox="0 0 24 24" style="enable-background:new 0 0 24 24;" xml:space="preserve">
<style type="text/css">
	.st0{fill:#FFFFFF;}
</style>
<g>
	<path class="st0" d="M22.7,0H1.3C0.6,0,0,0.6,0,1.3v21.3c0,0.7,0.6,1.3,1.3,1.3L22.7,24c0.7,0,1.3-0.6,1.3-1.3V1.3
		C24,0.6,23.4,0,22.7,0z M18.7,9.3c0,0.2,0,0.4,0,0.5c0,4.3-3.2,9.3-9.3,9.3c-2,0-3.6-0.6-5.1-1.5c0.2,0,0.4,0.1,0.7,0.1
		c1.6,0,3-0.5,4.1-1.4c-1.4,0-2.6-1-3.1-2.3c0.1,0,0.4,0.1,0.8,0c0.4,0,0.6,0,0.9-0.1C6.1,13.5,5,12.2,5,10.6v-0.1
		c0.4,0.3,1,0.3,1.5,0.4C5.6,10.3,5,9.3,5,8.2C5,7.6,5.2,7,5.5,6.5c1.6,1.9,4,3.3,6.7,3.4c0-0.2-0.1-0.4-0.1-0.7
		c0-1.8,1.5-3.3,3.3-3.3c0.9,0,1.8,0.4,2.4,1.1c0.8-0.1,1.4-0.5,2.1-0.8c-0.3,0.7-0.8,1.4-1.5,1.8c0.6,0,1.3-0.2,1.9-0.5
		C19.9,8.1,19.3,8.7,18.7,9.3z"/>
</g>
</svg>
